<svg xmlns="http://www.w3.org/2000/svg" xmlns:xlink="http://www.w3.org/1999/xlink" width="512" zoomAndPan="magnify" viewBox="0 0 384 383.999986" height="512" preserveAspectRatio="xMidYMid meet" version="1.0"><defs><g/><clipPath id="c7f0e0c392"><path d="M 38.398438 106.808594 L 107.234375 106.808594 L 107.234375 178 L 38.398438 178 Z M 38.398438 106.808594 " clip-rule="nonzero"/></clipPath><clipPath id="8257b1c42b"><path d="M 107.234375 120.308594 L 107.234375 164.421875 C 107.234375 168 105.8125 171.433594 103.28125 173.964844 C 100.75 176.496094 97.316406 177.921875 93.734375 177.921875 L 51.898438 177.921875 C 48.320312 177.921875 44.886719 176.496094 42.355469 173.964844 C 39.824219 171.433594 38.398438 168 38.398438 164.421875 L 38.398438 120.308594 C 38.398438 116.726562 39.824219 113.292969 42.355469 110.761719 C 44.886719 108.230469 48.320312 106.808594 51.898438 106.808594 L 93.734375 106.808594 C 97.316406 106.808594 100.75 108.230469 103.28125 110.761719 C 105.8125 113.292969 107.234375 116.726562 107.234375 120.308594 Z M 107.234375 120.308594 " clip-rule="nonzero"/></clipPath><clipPath id="1d528b142a"><path d="M 0.398438 0.808594 L 69.234375 0.808594 L 69.234375 72 L 0.398438 72 Z M 0.398438 0.808594 " clip-rule="nonzero"/></clipPath><clipPath id="be74988ddd"><path d="M 69.234375 14.308594 L 69.234375 58.421875 C 69.234375 62 67.8125 65.433594 65.28125 67.964844 C 62.75 70.496094 59.316406 71.921875 55.734375 71.921875 L 13.898438 71.921875 C 10.320312 71.921875 6.886719 70.496094 4.355469 67.964844 C 1.824219 65.433594 0.398438 62 0.398438 58.421875 L 0.398438 14.308594 C 0.398438 10.726562 1.824219 7.292969 4.355469 4.761719 C 6.886719 2.230469 10.320312 0.808594 13.898438 0.808594 L 55.734375 0.808594 C 59.316406 0.808594 62.75 2.230469 65.28125 4.761719 C 67.8125 7.292969 69.234375 10.726562 69.234375 14.308594 Z M 69.234375 14.308594 " clip-rule="nonzero"/></clipPath><clipPath id="6a19390b5b"><rect x="0" width="70" y="0" height="72"/></clipPath><clipPath id="71fcc5b488"><path d="M 38.398438 192 L 107.234375 192 L 107.234375 263.253906 L 38.398438 263.253906 Z M 38.398438 192 " clip-rule="nonzero"/></clipPath><clipPath id="28d5394675"><path d="M 107.234375 205.5 L 107.234375 249.609375 C 107.234375 253.191406 105.8125 256.625 103.28125 259.15625 C 100.75 261.6875 97.316406 263.109375 93.734375 263.109375 L 51.898438 263.109375 C 48.320312 263.109375 44.886719 261.6875 42.355469 259.15625 C 39.824219 256.625 38.398438 253.191406 38.398438 249.609375 L 38.398438 205.5 C 38.398438 201.917969 39.824219 198.484375 42.355469 195.953125 C 44.886719 193.421875 48.320312 192 51.898438 192 L 93.734375 192 C 97.316406 192 100.75 193.421875 103.28125 195.953125 C 105.8125 198.484375 107.234375 201.917969 107.234375 205.5 Z M 107.234375 205.5 " clip-rule="nonzero"/></clipPath><clipPath id="b53d3c58e2"><path d="M 0.398438 0 L 69.234375 0 L 69.234375 71 L 0.398438 71 Z M 0.398438 0 " clip-rule="nonzero"/></clipPath><clipPath id="662aeca656"><path d="M 69.234375 13.5 L 69.234375 57.609375 C 69.234375 61.191406 67.8125 64.625 65.28125 67.15625 C 62.75 69.6875 59.316406 71.109375 55.734375 71.109375 L 13.898438 71.109375 C 10.320312 71.109375 6.886719 69.6875 4.355469 67.15625 C 1.824219 64.625 0.398438 61.191406 0.398438 57.609375 L 0.398438 13.5 C 0.398438 9.917969 1.824219 6.484375 4.355469 3.953125 C 6.886719 1.421875 10.320312 0 13.898438 0 L 55.734375 0 C 59.316406 0 62.75 1.421875 65.28125 3.953125 C 67.8125 6.484375 69.234375 9.917969 69.234375 13.5 Z M 69.234375 13.5 " clip-rule="nonzero"/></clipPath><clipPath id="af3eece3d7"><rect x="0" width="70" y="0" height="72"/></clipPath><clipPath id="5f2fd9065e"><path d="M 123.164062 106.808594 L 192 106.808594 L 192 178 L 123.164062 178 Z M 123.164062 106.808594 " clip-rule="nonzero"/></clipPath><clipPath id="5401f36a11"><path d="M 192 120.308594 L 192 164.421875 C 192 168 190.578125 171.433594 188.046875 173.964844 C 185.515625 176.496094 182.082031 177.921875 178.5 177.921875 L 136.664062 177.921875 C 133.085938 177.921875 129.648438 176.496094 127.117188 173.964844 C 124.585938 171.433594 123.164062 168 123.164062 164.421875 L 123.164062 120.308594 C 123.164062 116.726562 124.585938 113.292969 127.117188 110.761719 C 129.648438 108.230469 133.085938 106.808594 136.664062 106.808594 L 178.5 106.808594 C 182.082031 106.808594 185.515625 108.230469 188.046875 110.761719 C 190.578125 113.292969 192 116.726562 192 120.308594 Z M 192 120.308594 " clip-rule="nonzero"/></clipPath><clipPath id="a19fcfaf31"><path d="M 0.164062 0.808594 L 69 0.808594 L 69 72 L 0.164062 72 Z M 0.164062 0.808594 " clip-rule="nonzero"/></clipPath><clipPath id="c860f6cd76"><path d="M 69 14.308594 L 69 58.421875 C 69 62 67.578125 65.433594 65.046875 67.964844 C 62.515625 70.496094 59.082031 71.921875 55.5 71.921875 L 13.664062 71.921875 C 10.085938 71.921875 6.648438 70.496094 4.117188 67.964844 C 1.585938 65.433594 0.164062 62 0.164062 58.421875 L 0.164062 14.308594 C 0.164062 10.726562 1.585938 7.292969 4.117188 4.761719 C 6.648438 2.230469 10.085938 0.808594 13.664062 0.808594 L 55.5 0.808594 C 59.082031 0.808594 62.515625 2.230469 65.046875 4.761719 C 67.578125 7.292969 69 10.726562 69 14.308594 Z M 69 14.308594 " clip-rule="nonzero"/></clipPath><clipPath id="07bb9eb1f2"><rect x="0" width="69" y="0" height="72"/></clipPath><clipPath id="d0c46b595e"><path d="M 123.164062 192 L 192 192 L 192 263.253906 L 123.164062 263.253906 Z M 123.164062 192 " clip-rule="nonzero"/></clipPath><clipPath id="1fed582914"><path d="M 192 205.5 L 192 249.609375 C 192 253.191406 190.578125 256.625 188.046875 259.15625 C 185.515625 261.6875 182.082031 263.109375 178.5 263.109375 L 136.664062 263.109375 C 133.085938 263.109375 129.648438 261.6875 127.117188 259.15625 C 124.585938 256.625 123.164062 253.191406 123.164062 249.609375 L 123.164062 205.5 C 123.164062 201.917969 124.585938 198.484375 127.117188 195.953125 C 129.648438 193.421875 133.085938 192 136.664062 192 L 178.5 192 C 182.082031 192 185.515625 193.421875 188.046875 195.953125 C 190.578125 198.484375 192 201.917969 192 205.5 Z M 192 205.5 " clip-rule="nonzero"/></clipPath><clipPath id="1df648dfb2"><path d="M 0.164062 0 L 69 0 L 69 71 L 0.164062 71 Z M 0.164062 0 " clip-rule="nonzero"/></clipPath><clipPath id="81785bee16"><path d="M 69 13.5 L 69 57.609375 C 69 61.191406 67.578125 64.625 65.046875 67.15625 C 62.515625 69.6875 59.082031 71.109375 55.5 71.109375 L 13.664062 71.109375 C 10.085938 71.109375 6.648438 69.6875 4.117188 67.15625 C 1.585938 64.625 0.164062 61.191406 0.164062 57.609375 L 0.164062 13.5 C 0.164062 9.917969 1.585938 6.484375 4.117188 3.953125 C 6.648438 1.421875 10.085938 0 13.664062 0 L 55.5 0 C 59.082031 0 62.515625 1.421875 65.046875 3.953125 C 67.578125 6.484375 69 9.917969 69 13.5 Z M 69 13.5 " clip-rule="nonzero"/></clipPath><clipPath id="b91a5437b5"><rect x="0" width="69" y="0" height="72"/></clipPath><clipPath id="c705adc6e4"><path d="M 123.164062 274.488281 L 276.777344 274.488281 L 276.777344 345.601562 L 123.164062 345.601562 Z M 123.164062 274.488281 " clip-rule="nonzero"/></clipPath><clipPath id="8fb5612300"><path d="M 276.585938 287.988281 L 276.585938 332.101562 C 276.585938 335.679688 275.164062 339.113281 272.632812 341.644531 C 270.101562 344.175781 266.664062 345.601562 263.085938 345.601562 L 136.664062 345.601562 C 133.085938 345.601562 129.648438 344.175781 127.117188 341.644531 C 124.585938 339.113281 123.164062 335.679688 123.164062 332.101562 L 123.164062 287.988281 C 123.164062 284.410156 124.585938 280.976562 127.117188 278.441406 C 129.648438 275.910156 133.085938 274.488281 136.664062 274.488281 L 263.085938 274.488281 C 266.664062 274.488281 270.101562 275.910156 272.632812 278.441406 C 275.164062 280.976562 276.585938 284.410156 276.585938 287.988281 Z M 276.585938 287.988281 " clip-rule="nonzero"/></clipPath><clipPath id="cadc30f0b0"><path d="M 0.164062 0.488281 L 153.71875 0.488281 L 153.71875 71.601562 L 0.164062 71.601562 Z M 0.164062 0.488281 " clip-rule="nonzero"/></clipPath><clipPath id="f3b546f97c"><path d="M 153.585938 13.988281 L 153.585938 58.101562 C 153.585938 61.679688 152.164062 65.113281 149.632812 67.644531 C 147.101562 70.175781 143.664062 71.601562 140.085938 71.601562 L 13.664062 71.601562 C 10.085938 71.601562 6.648438 70.175781 4.117188 67.644531 C 1.585938 65.113281 0.164062 61.679688 0.164062 58.101562 L 0.164062 13.988281 C 0.164062 10.410156 1.585938 6.976562 4.117188 4.441406 C 6.648438 1.910156 10.085938 0.488281 13.664062 0.488281 L 140.085938 0.488281 C 143.664062 0.488281 147.101562 1.910156 149.632812 4.441406 C 152.164062 6.976562 153.585938 10.410156 153.585938 13.988281 Z M 153.585938 13.988281 " clip-rule="nonzero"/></clipPath><clipPath id="0de4df96cc"><rect x="0" width="154" y="0" height="72"/></clipPath><clipPath id="6cfa06d3a2"><path d="M 207.75 106.808594 L 276.585938 106.808594 L 276.585938 178 L 207.75 178 Z M 207.75 106.808594 " clip-rule="nonzero"/></clipPath><clipPath id="3fdaee29c6"><path d="M 276.585938 120.308594 L 276.585938 164.421875 C 276.585938 168 275.164062 171.433594 272.632812 173.964844 C 270.101562 176.496094 266.664062 177.921875 263.085938 177.921875 L 221.25 177.921875 C 217.667969 177.921875 214.234375 176.496094 211.703125 173.964844 C 209.171875 171.433594 207.75 168 207.75 164.421875 L 207.75 120.308594 C 207.75 116.726562 209.171875 113.292969 211.703125 110.761719 C 214.234375 108.230469 217.667969 106.808594 221.25 106.808594 L 263.085938 106.808594 C 266.664062 106.808594 270.101562 108.230469 272.632812 110.761719 C 275.164062 113.292969 276.585938 116.726562 276.585938 120.308594 Z M 276.585938 120.308594 " clip-rule="nonzero"/></clipPath><clipPath id="d0710fd8f4"><path d="M 0.75 0.808594 L 69.585938 0.808594 L 69.585938 72 L 0.75 72 Z M 0.75 0.808594 " clip-rule="nonzero"/></clipPath><clipPath id="92f636d7d4"><path d="M 69.585938 14.308594 L 69.585938 58.421875 C 69.585938 62 68.164062 65.433594 65.632812 67.964844 C 63.101562 70.496094 59.664062 71.921875 56.085938 71.921875 L 14.25 71.921875 C 10.667969 71.921875 7.234375 70.496094 4.703125 67.964844 C 2.171875 65.433594 0.75 62 0.75 58.421875 L 0.75 14.308594 C 0.75 10.726562 2.171875 7.292969 4.703125 4.761719 C 7.234375 2.230469 10.667969 0.808594 14.25 0.808594 L 56.085938 0.808594 C 59.664062 0.808594 63.101562 2.230469 65.632812 4.761719 C 68.164062 7.292969 69.585938 10.726562 69.585938 14.308594 Z M 69.585938 14.308594 " clip-rule="nonzero"/></clipPath><clipPath id="65f20580ad"><rect x="0" width="70" y="0" height="72"/></clipPath><clipPath id="5721bc95fb"><path d="M 207.75 192 L 276.585938 192 L 276.585938 263.253906 L 207.75 263.253906 Z M 207.75 192 " clip-rule="nonzero"/></clipPath><clipPath id="6c90dba791"><path d="M 276.585938 205.5 L 276.585938 249.609375 C 276.585938 253.191406 275.164062 256.625 272.632812 259.15625 C 270.101562 261.6875 266.664062 263.109375 263.085938 263.109375 L 221.25 263.109375 C 217.667969 263.109375 214.234375 261.6875 211.703125 259.15625 C 209.171875 256.625 207.75 253.191406 207.75 249.609375 L 207.75 205.5 C 207.75 201.917969 209.171875 198.484375 211.703125 195.953125 C 214.234375 193.421875 217.667969 192 221.25 192 L 263.085938 192 C 266.664062 192 270.101562 193.421875 272.632812 195.953125 C 275.164062 198.484375 276.585938 201.917969 276.585938 205.5 Z M 276.585938 205.5 " clip-rule="nonzero"/></clipPath><clipPath id="840a4f9285"><path d="M 0.75 0 L 69.585938 0 L 69.585938 71 L 0.75 71 Z M 0.75 0 " clip-rule="nonzero"/></clipPath><clipPath id="17c1ce377f"><path d="M 69.585938 13.5 L 69.585938 57.609375 C 69.585938 61.191406 68.164062 64.625 65.632812 67.15625 C 63.101562 69.6875 59.664062 71.109375 56.085938 71.109375 L 14.25 71.109375 C 10.667969 71.109375 7.234375 69.6875 4.703125 67.15625 C 2.171875 64.625 0.75 61.191406 0.75 57.609375 L 0.75 13.5 C 0.75 9.917969 2.171875 6.484375 4.703125 3.953125 C 7.234375 1.421875 10.667969 0 14.25 0 L 56.085938 0 C 59.664062 0 63.101562 1.421875 65.632812 3.953125 C 68.164062 6.484375 69.585938 9.917969 69.585938 13.5 Z M 69.585938 13.5 " clip-rule="nonzero"/></clipPath><clipPath id="5ae790fae0"><rect x="0" width="70" y="0" height="72"/></clipPath><clipPath id="26dbd41a97"><path d="M 292.335938 106.808594 L 361.171875 106.808594 L 361.171875 178 L 292.335938 178 Z M 292.335938 106.808594 " clip-rule="nonzero"/></clipPath><clipPath id="2a67d42901"><path d="M 361.171875 120.308594 L 361.171875 164.421875 C 361.171875 168 359.75 171.433594 357.21875 173.964844 C 354.683594 176.496094 351.25 177.921875 347.671875 177.921875 L 305.835938 177.921875 C 302.253906 177.921875 298.820312 176.496094 296.289062 173.964844 C 293.757812 171.433594 292.335938 168 292.335938 164.421875 L 292.335938 120.308594 C 292.335938 116.726562 293.757812 113.292969 296.289062 110.761719 C 298.820312 108.230469 302.253906 106.808594 305.835938 106.808594 L 347.671875 106.808594 C 351.25 106.808594 354.683594 108.230469 357.21875 110.761719 C 359.75 113.292969 361.171875 116.726562 361.171875 120.308594 Z M 361.171875 120.308594 " clip-rule="nonzero"/></clipPath><clipPath id="08bbee6887"><path d="M 0.335938 0.808594 L 69.171875 0.808594 L 69.171875 72 L 0.335938 72 Z M 0.335938 0.808594 " clip-rule="nonzero"/></clipPath><clipPath id="6a66a14c6b"><path d="M 69.171875 14.308594 L 69.171875 58.421875 C 69.171875 62 67.75 65.433594 65.21875 67.964844 C 62.683594 70.496094 59.25 71.921875 55.671875 71.921875 L 13.835938 71.921875 C 10.253906 71.921875 6.820312 70.496094 4.289062 67.964844 C 1.757812 65.433594 0.335938 62 0.335938 58.421875 L 0.335938 14.308594 C 0.335938 10.726562 1.757812 7.292969 4.289062 4.761719 C 6.820312 2.230469 10.253906 0.808594 13.835938 0.808594 L 55.671875 0.808594 C 59.25 0.808594 62.683594 2.230469 65.21875 4.761719 C 67.75 7.292969 69.171875 10.726562 69.171875 14.308594 Z M 69.171875 14.308594 " clip-rule="nonzero"/></clipPath><clipPath id="9fcb87a102"><rect x="0" width="70" y="0" height="72"/></clipPath><clipPath id="ea39669717"><path d="M 292.335938 192 L 361.171875 192 L 361.171875 263.253906 L 292.335938 263.253906 Z M 292.335938 192 " clip-rule="nonzero"/></clipPath><clipPath id="ac9111f76e"><path d="M 361.171875 205.5 L 361.171875 249.609375 C 361.171875 253.191406 359.75 256.625 357.21875 259.15625 C 354.683594 261.6875 351.25 263.109375 347.671875 263.109375 L 305.835938 263.109375 C 302.253906 263.109375 298.820312 261.6875 296.289062 259.15625 C 293.757812 256.625 292.335938 253.191406 292.335938 249.609375 L 292.335938 205.5 C 292.335938 201.917969 293.757812 198.484375 296.289062 195.953125 C 298.820312 193.421875 302.253906 192 305.835938 192 L 347.671875 192 C 351.25 192 354.683594 193.421875 357.21875 195.953125 C 359.75 198.484375 361.171875 201.917969 361.171875 205.5 Z M 361.171875 205.5 " clip-rule="nonzero"/></clipPath><clipPath id="821c65c9be"><path d="M 0.335938 0 L 69.171875 0 L 69.171875 71 L 0.335938 71 Z M 0.335938 0 " clip-rule="nonzero"/></clipPath><clipPath id="3bc0d730ad"><path d="M 69.171875 13.5 L 69.171875 57.609375 C 69.171875 61.191406 67.75 64.625 65.21875 67.15625 C 62.683594 69.6875 59.25 71.109375 55.671875 71.109375 L 13.835938 71.109375 C 10.253906 71.109375 6.820312 69.6875 4.289062 67.15625 C 1.757812 64.625 0.335938 61.191406 0.335938 57.609375 L 0.335938 13.5 C 0.335938 9.917969 1.757812 6.484375 4.289062 3.953125 C 6.820312 1.421875 10.253906 0 13.835938 0 L 55.671875 0 C 59.25 0 62.683594 1.421875 65.21875 3.953125 C 67.75 6.484375 69.171875 9.917969 69.171875 13.5 Z M 69.171875 13.5 " clip-rule="nonzero"/></clipPath><clipPath id="399faacff6"><rect x="0" width="70" y="0" height="72"/></clipPath><clipPath id="4698d84ec9"><path d="M 38.398438 57.601562 L 361.199219 57.601562 L 361.199219 71.539062 L 38.398438 71.539062 Z M 38.398438 57.601562 " clip-rule="nonzero"/></clipPath><clipPath id="1b916548ed"><path d="M 42.148438 57.601562 L 357.421875 57.601562 C 358.414062 57.601562 359.371094 57.996094 360.074219 58.699219 C 360.777344 59.402344 361.171875 60.355469 361.171875 61.351562 L 361.171875 67.789062 C 361.171875 68.78125 360.777344 69.734375 360.074219 70.4375 C 359.371094 71.144531 358.414062 71.539062 357.421875 71.539062 L 42.148438 71.539062 C 41.15625 71.539062 40.203125 71.144531 39.5 70.4375 C 38.796875 69.734375 38.398438 68.78125 38.398438 67.789062 L 38.398438 61.351562 C 38.398438 60.355469 38.796875 59.402344 39.5 58.699219 C 40.203125 57.996094 41.15625 57.601562 42.148438 57.601562 Z M 42.148438 57.601562 " clip-rule="nonzero"/></clipPath><clipPath id="3c4c093b98"><path d="M 0.398438 0.601562 L 323.199219 0.601562 L 323.199219 14.539062 L 0.398438 14.539062 Z M 0.398438 0.601562 " clip-rule="nonzero"/></clipPath><clipPath id="93bc9e311a"><path d="M 4.148438 0.601562 L 319.421875 0.601562 C 320.414062 0.601562 321.371094 0.996094 322.074219 1.699219 C 322.777344 2.402344 323.171875 3.355469 323.171875 4.351562 L 323.171875 10.789062 C 323.171875 11.78125 322.777344 12.734375 322.074219 13.4375 C 321.371094 14.144531 320.414062 14.539062 319.421875 14.539062 L 4.148438 14.539062 C 3.15625 14.539062 2.203125 14.144531 1.5 13.4375 C 0.796875 12.734375 0.398438 11.78125 0.398438 10.789062 L 0.398438 4.351562 C 0.398438 3.355469 0.796875 2.402344 1.5 1.699219 C 2.203125 0.996094 3.15625 0.601562 4.148438 0.601562 Z M 4.148438 0.601562 " clip-rule="nonzero"/></clipPath><clipPath id="45ce68afc1"><rect x="0" width="324" y="0" height="15"/></clipPath><clipPath id="2146d7beb2"><path d="M 36.726562 51.414062 L 162.21875 51.414062 L 162.21875 77.722656 L 36.726562 77.722656 Z M 36.726562 51.414062 " clip-rule="nonzero"/></clipPath><clipPath id="f73ac342e4"><path d="M 40.476562 51.414062 L 158.382812 51.414062 C 159.378906 51.414062 160.332031 51.808594 161.035156 52.511719 C 161.738281 53.214844 162.132812 54.167969 162.132812 55.164062 L 162.132812 73.972656 C 162.132812 74.96875 161.738281 75.921875 161.035156 76.625 C 160.332031 77.328125 159.378906 77.722656 158.382812 77.722656 L 40.476562 77.722656 C 39.480469 77.722656 38.527344 77.328125 37.824219 76.625 C 37.121094 75.921875 36.726562 74.96875 36.726562 73.972656 L 36.726562 55.164062 C 36.726562 54.167969 37.121094 53.214844 37.824219 52.511719 C 38.527344 51.808594 39.480469 51.414062 40.476562 51.414062 Z M 40.476562 51.414062 " clip-rule="nonzero"/></clipPath><clipPath id="a52c562ae9"><path d="M 0.726562 0.414062 L 126.21875 0.414062 L 126.21875 26.722656 L 0.726562 26.722656 Z M 0.726562 0.414062 " clip-rule="nonzero"/></clipPath><clipPath id="fa5c54f8e2"><path d="M 4.476562 0.414062 L 122.382812 0.414062 C 123.378906 0.414062 124.332031 0.808594 125.035156 1.511719 C 125.738281 2.214844 126.132812 3.167969 126.132812 4.164062 L 126.132812 22.972656 C 126.132812 23.96875 125.738281 24.921875 125.035156 25.625 C 124.332031 26.328125 123.378906 26.722656 122.382812 26.722656 L 4.476562 26.722656 C 3.480469 26.722656 2.527344 26.328125 1.824219 25.625 C 1.121094 24.921875 0.726562 23.96875 0.726562 22.972656 L 0.726562 4.164062 C 0.726562 3.167969 1.121094 2.214844 1.824219 1.511719 C 2.527344 0.808594 3.480469 0.414062 4.476562 0.414062 Z M 4.476562 0.414062 " clip-rule="nonzero"/></clipPath><clipPath id="756ea95cf4"><rect x="0" width="127" y="0" height="27"/></clipPath></defs><rect x="-38.4" width="460.8" fill="#ffffff" y="-38.399999" height="460.799983" fill-opacity="1"/><rect x="-38.4" width="460.8" fill="#ffffff" y="-38.399999" height="460.799983" fill-opacity="1"/><g clip-path="url(#c7f0e0c392)"><g clip-path="url(#8257b1c42b)"><g transform="matrix(1, 0, 0, 1, 38, 106)"><g clip-path="url(#6a19390b5b)"><g clip-path="url(#1d528b142a)"><g clip-path="url(#be74988ddd)"><path fill="#b4b4b4" d="M 0.398438 0.808594 L 69.234375 0.808594 L 69.234375 71.796875 L 0.398438 71.796875 Z M 0.398438 0.808594 " fill-opacity="1" fill-rule="nonzero"/></g></g></g></g></g></g><g clip-path="url(#71fcc5b488)"><g clip-path="url(#28d5394675)"><g transform="matrix(1, 0, 0, 1, 38, 192)"><g clip-path="url(#af3eece3d7)"><g clip-path="url(#b53d3c58e2)"><g clip-path="url(#662aeca656)"><path fill="#b4b4b4" d="M 0.398438 0 L 69.234375 0 L 69.234375 70.988281 L 0.398438 70.988281 Z M 0.398438 0 " fill-opacity="1" fill-rule="nonzero"/></g></g></g></g></g></g><g clip-path="url(#5f2fd9065e)"><g clip-path="url(#5401f36a11)"><g transform="matrix(1, 0, 0, 1, 123, 106)"><g clip-path="url(#07bb9eb1f2)"><g clip-path="url(#a19fcfaf31)"><g clip-path="url(#c860f6cd76)"><path fill="#b4b4b4" d="M 0.164062 0.808594 L 69 0.808594 L 69 71.796875 L 0.164062 71.796875 Z M 0.164062 0.808594 " fill-opacity="1" fill-rule="nonzero"/></g></g></g></g></g></g><g clip-path="url(#d0c46b595e)"><g clip-path="url(#1fed582914)"><g transform="matrix(1, 0, 0, 1, 123, 192)"><g clip-path="url(#b91a5437b5)"><g clip-path="url(#1df648dfb2)"><g clip-path="url(#81785bee16)"><path fill="#b4b4b4" d="M 0.164062 0 L 69 0 L 69 70.988281 L 0.164062 70.988281 Z M 0.164062 0 " fill-opacity="1" fill-rule="nonzero"/></g></g></g></g></g></g><g clip-path="url(#c705adc6e4)"><g clip-path="url(#8fb5612300)"><g transform="matrix(1, 0, 0, 1, 123, 274)"><g clip-path="url(#0de4df96cc)"><g clip-path="url(#cadc30f0b0)"><g clip-path="url(#f3b546f97c)"><path fill="#b4b4b4" d="M 0.164062 0.488281 L 153.496094 0.488281 L 153.496094 71.601562 L 0.164062 71.601562 Z M 0.164062 0.488281 " fill-opacity="1" fill-rule="nonzero"/></g></g></g></g></g></g><g clip-path="url(#6cfa06d3a2)"><g clip-path="url(#3fdaee29c6)"><g transform="matrix(1, 0, 0, 1, 207, 106)"><g clip-path="url(#65f20580ad)"><g clip-path="url(#d0710fd8f4)"><g clip-path="url(#92f636d7d4)"><path fill="#b4b4b4" d="M 0.75 0.808594 L 69.585938 0.808594 L 69.585938 71.796875 L 0.75 71.796875 Z M 0.75 0.808594 " fill-opacity="1" fill-rule="nonzero"/></g></g></g></g></g></g><g clip-path="url(#5721bc95fb)"><g clip-path="url(#6c90dba791)"><g transform="matrix(1, 0, 0, 1, 207, 192)"><g clip-path="url(#5ae790fae0)"><g clip-path="url(#840a4f9285)"><g clip-path="url(#17c1ce377f)"><path fill="#b4b4b4" d="M 0.75 0 L 69.585938 0 L 69.585938 70.988281 L 0.75 70.988281 Z M 0.75 0 " fill-opacity="1" fill-rule="nonzero"/></g></g></g></g></g></g><g clip-path="url(#26dbd41a97)"><g clip-path="url(#2a67d42901)"><g transform="matrix(1, 0, 0, 1, 292, 106)"><g clip-path="url(#9fcb87a102)"><g clip-path="url(#08bbee6887)"><g clip-path="url(#6a66a14c6b)"><path fill="#b4b4b4" d="M 0.335938 0.808594 L 69.171875 0.808594 L 69.171875 71.796875 L 0.335938 71.796875 Z M 0.335938 0.808594 " fill-opacity="1" fill-rule="nonzero"/></g></g></g></g></g></g><g clip-path="url(#ea39669717)"><g clip-path="url(#ac9111f76e)"><g transform="matrix(1, 0, 0, 1, 292, 192)"><g clip-path="url(#399faacff6)"><g clip-path="url(#821c65c9be)"><g clip-path="url(#3bc0d730ad)"><path fill="#b4b4b4" d="M 0.335938 0 L 69.171875 0 L 69.171875 70.988281 L 0.335938 70.988281 Z M 0.335938 0 " fill-opacity="1" fill-rule="nonzero"/></g></g></g></g></g></g><g clip-path="url(#4698d84ec9)"><g clip-path="url(#1b916548ed)"><g transform="matrix(1, 0, 0, 1, 38, 57)"><g clip-path="url(#45ce68afc1)"><g clip-path="url(#3c4c093b98)"><g clip-path="url(#93bc9e311a)"><path fill="#000000" d="M 0.398438 0.601562 L 323.148438 0.601562 L 323.148438 14.539062 L 0.398438 14.539062 Z M 0.398438 0.601562 " fill-opacity="1" fill-rule="nonzero"/></g></g></g></g></g></g><g clip-path="url(#2146d7beb2)"><g clip-path="url(#f73ac342e4)"><g transform="matrix(1, 0, 0, 1, 36, 51)"><g clip-path="url(#756ea95cf4)"><g clip-path="url(#a52c562ae9)"><g clip-path="url(#fa5c54f8e2)"><path fill="#000000" d="M 0.726562 0.414062 L 126.113281 0.414062 L 126.113281 26.722656 L 0.726562 26.722656 Z M 0.726562 0.414062 " fill-opacity="1" fill-rule="nonzero"/></g></g></g></g></g></g><g fill="#000000" fill-opacity="1"><g transform="translate(146.953121, 319.044409)"><g><path d="M 13.109375 0.296875 C 11.503906 0.492188 9.925781 0.453125 8.375 0.171875 C 6.820312 -0.109375 5.414062 -0.613281 4.15625 -1.34375 C 2.894531 -2.070312 1.882812 -3.003906 1.125 -4.140625 C 0.375 -5.273438 0 -6.597656 0 -8.109375 C 0 -9.335938 0.363281 -10.460938 1.09375 -11.484375 C 1.820312 -12.503906 2.835938 -13.320312 4.140625 -13.9375 C 5.441406 -14.5625 6.945312 -14.894531 8.65625 -14.9375 C 10.363281 -14.976562 12.179688 -14.644531 14.109375 -13.9375 C 14.753906 -13.71875 15.164062 -13.382812 15.34375 -12.9375 C 15.53125 -12.488281 15.539062 -12.050781 15.375 -11.625 C 15.207031 -11.207031 14.925781 -10.90625 14.53125 -10.71875 C 14.132812 -10.539062 13.671875 -10.59375 13.140625 -10.875 C 11.460938 -11.832031 9.890625 -12.445312 8.421875 -12.71875 C 6.953125 -13 5.660156 -12.992188 4.546875 -12.703125 C 3.441406 -12.410156 2.585938 -11.867188 1.984375 -11.078125 C 1.390625 -10.296875 1.132812 -9.316406 1.21875 -8.140625 C 1.300781 -6.992188 1.675781 -6.007812 2.34375 -5.1875 C 3.019531 -4.363281 3.894531 -3.707031 4.96875 -3.21875 C 6.050781 -2.726562 7.242188 -2.40625 8.546875 -2.25 C 9.847656 -2.09375 11.15625 -2.113281 12.46875 -2.3125 C 14.09375 -2.5625 15.613281 -3.070312 17.03125 -3.84375 C 18.445312 -4.613281 19.59375 -5.648438 20.46875 -6.953125 C 21.351562 -8.253906 21.769531 -9.816406 21.71875 -11.640625 C 21.6875 -12.785156 21.394531 -13.828125 20.84375 -14.765625 C 20.300781 -15.703125 19.695312 -16.601562 19.03125 -17.46875 C 18.46875 -18.25 17.882812 -19.0625 17.28125 -19.90625 C 16.675781 -20.75 16.226562 -21.640625 15.9375 -22.578125 C 15.644531 -23.515625 15.648438 -24.5 15.953125 -25.53125 C 16.347656 -26.851562 17.070312 -27.945312 18.125 -28.8125 C 19.175781 -29.675781 20.394531 -30.328125 21.78125 -30.765625 C 23.164062 -31.203125 24.578125 -31.429688 26.015625 -31.453125 C 27.460938 -31.484375 28.785156 -31.316406 29.984375 -30.953125 C 31.191406 -30.585938 32.128906 -30.035156 32.796875 -29.296875 C 33.472656 -28.554688 33.726562 -27.625 33.5625 -26.5 C 33.394531 -25.488281 32.945312 -24.644531 32.21875 -23.96875 C 31.488281 -23.300781 30.625 -22.765625 29.625 -22.359375 C 28.632812 -21.953125 27.65625 -21.671875 26.6875 -21.515625 C 25.71875 -21.367188 24.914062 -21.320312 24.28125 -21.375 C 23.664062 -21.457031 23.28125 -21.703125 23.125 -22.109375 C 22.96875 -22.515625 23.015625 -22.890625 23.265625 -23.234375 C 23.515625 -23.585938 23.921875 -23.695312 24.484375 -23.5625 C 26.609375 -23.03125 28.296875 -22.945312 29.546875 -23.3125 C 30.796875 -23.675781 31.304688 -24.710938 31.078125 -26.421875 C 30.941406 -27.535156 30.492188 -28.4375 29.734375 -29.125 C 28.984375 -29.8125 28.066406 -30.257812 26.984375 -30.46875 C 25.910156 -30.675781 24.804688 -30.640625 23.671875 -30.359375 C 22.535156 -30.085938 21.523438 -29.554688 20.640625 -28.765625 C 19.753906 -27.984375 19.132812 -26.921875 18.78125 -25.578125 C 18.332031 -23.785156 18.234375 -22.316406 18.484375 -21.171875 C 18.734375 -20.023438 19.164062 -19.003906 19.78125 -18.109375 C 20.226562 -17.460938 20.710938 -16.835938 21.234375 -16.234375 C 21.753906 -15.628906 22.238281 -14.984375 22.6875 -14.296875 C 23.132812 -13.609375 23.453125 -12.804688 23.640625 -11.890625 C 24.085938 -10.035156 23.96875 -8.238281 23.28125 -6.5 C 22.601562 -4.769531 21.410156 -3.285156 19.703125 -2.046875 C 17.992188 -0.816406 15.796875 -0.0351562 13.109375 0.296875 Z M 13.109375 0.296875 "/></g></g></g><g fill="#000000" fill-opacity="1"><g transform="translate(172.195124, 319.044409)"><g><path d="M 1.640625 -0.296875 C 0.679688 -0.941406 0.144531 -1.757812 0.03125 -2.75 C -0.0703125 -3.738281 0.109375 -4.796875 0.578125 -5.921875 C 1.054688 -7.046875 1.734375 -8.109375 2.609375 -9.109375 C 3.503906 -10.171875 4.503906 -11.066406 5.609375 -11.796875 C 6.710938 -12.523438 7.78125 -12.976562 8.8125 -13.15625 C 9.851562 -13.34375 10.679688 -13.171875 11.296875 -12.640625 C 11.710938 -12.273438 11.882812 -11.742188 11.8125 -11.046875 C 11.75 -10.347656 11.472656 -9.597656 10.984375 -8.796875 C 10.492188 -8.003906 9.828125 -7.25 8.984375 -6.53125 C 8.148438 -5.8125 7.144531 -5.269531 5.96875 -4.90625 C 5.4375 -4.738281 5.007812 -4.757812 4.6875 -4.96875 C 4.363281 -5.1875 4.164062 -5.476562 4.09375 -5.84375 C 4.019531 -6.207031 4.082031 -6.535156 4.28125 -6.828125 C 4.476562 -7.117188 4.828125 -7.265625 5.328125 -7.265625 C 6.671875 -7.265625 7.753906 -7.46875 8.578125 -7.875 C 9.410156 -8.28125 10.03125 -8.785156 10.4375 -9.390625 C 10.84375 -9.992188 11.046875 -10.570312 11.046875 -11.125 C 11.046875 -11.6875 10.890625 -12.109375 10.578125 -12.390625 C 10.210938 -12.753906 9.738281 -12.835938 9.15625 -12.640625 C 8.570312 -12.441406 7.941406 -12.066406 7.265625 -11.515625 C 6.597656 -10.972656 5.953125 -10.34375 5.328125 -9.625 C 4.742188 -8.945312 4.25 -8.207031 3.84375 -7.40625 C 3.4375 -6.613281 3.203125 -5.835938 3.140625 -5.078125 C 3.085938 -4.328125 3.273438 -3.644531 3.703125 -3.03125 C 4.285156 -2.238281 5.070312 -1.882812 6.0625 -1.96875 C 7.0625 -2.050781 8.191406 -2.5 9.453125 -3.3125 C 10.710938 -4.125 12.023438 -5.21875 13.390625 -6.59375 L 13.65625 -6.34375 C 12.945312 -5.414062 12.085938 -4.472656 11.078125 -3.515625 C 10.078125 -2.566406 9.007812 -1.75 7.875 -1.0625 C 6.738281 -0.382812 5.625 0.0507812 4.53125 0.25 C 3.4375 0.445312 2.472656 0.265625 1.640625 -0.296875 Z M 1.640625 -0.296875 "/></g></g></g><g fill="#000000" fill-opacity="1"><g transform="translate(184.417127, 319.044409)"><g><path d="M -0.59375 -0.296875 C -1.207031 -0.828125 -1.351562 -1.640625 -1.03125 -2.734375 C -0.707031 -3.828125 0.015625 -5.097656 1.140625 -6.546875 C 2.035156 -7.722656 2.84375 -8.867188 3.5625 -9.984375 C 4.289062 -11.109375 4.878906 -11.953125 5.328125 -12.515625 C 5.640625 -12.910156 5.988281 -13.128906 6.375 -13.171875 C 6.769531 -13.210938 7.109375 -13.117188 7.390625 -12.890625 C 7.671875 -12.671875 7.796875 -12.359375 7.765625 -11.953125 C 7.742188 -11.546875 7.453125 -11.085938 6.890625 -10.578125 C 6.328125 -10.046875 5.554688 -9.410156 4.578125 -8.671875 C 3.597656 -7.929688 2.660156 -7.039062 1.765625 -6 C 1.265625 -5.382812 0.96875 -4.734375 0.875 -4.046875 C 0.789062 -3.367188 1.015625 -2.789062 1.546875 -2.3125 C 2.273438 -1.632812 3.25 -1.523438 4.46875 -1.984375 C 5.6875 -2.453125 6.984375 -3.332031 8.359375 -4.625 C 8.128906 -5.40625 8.285156 -6.46875 8.828125 -7.8125 C 9.378906 -9.15625 10.46875 -10.765625 12.09375 -12.640625 C 12.425781 -13.035156 12.84375 -13.21875 13.34375 -13.1875 C 13.851562 -13.15625 14.269531 -12.976562 14.59375 -12.65625 C 14.914062 -12.34375 14.953125 -11.929688 14.703125 -11.421875 C 14.640625 -11.285156 14.5625 -11.140625 14.46875 -10.984375 C 14.375 -10.828125 14.210938 -10.585938 13.984375 -10.265625 C 13.765625 -9.941406 13.390625 -9.445312 12.859375 -8.78125 C 12.578125 -8.351562 12.257812 -7.929688 11.90625 -7.515625 C 11.550781 -7.097656 11.179688 -6.679688 10.796875 -6.265625 L 9.828125 -5.078125 C 10.242188 -4.515625 10.820312 -4.15625 11.5625 -4 C 12.3125 -3.851562 13.175781 -4.023438 14.15625 -4.515625 C 15.132812 -5.003906 16.195312 -5.90625 17.34375 -7.21875 L 17.640625 -7.0625 C 16.691406 -5.820312 15.671875 -4.859375 14.578125 -4.171875 C 13.484375 -3.492188 12.453125 -3.085938 11.484375 -2.953125 C 10.515625 -2.828125 9.738281 -2.976562 9.15625 -3.40625 C 8.957031 -3.539062 8.757812 -3.75 8.5625 -4.03125 C 7.445312 -3 6.300781 -2.097656 5.125 -1.328125 C 3.945312 -0.554688 2.859375 -0.0625 1.859375 0.15625 C 0.867188 0.382812 0.0507812 0.234375 -0.59375 -0.296875 Z M -0.59375 -0.296875 "/></g></g></g><g fill="#000000" fill-opacity="1"><g transform="translate(200.503124, 319.044409)"><g><path d="M 1.640625 -0.296875 C 0.679688 -0.941406 0.144531 -1.757812 0.03125 -2.75 C -0.0703125 -3.738281 0.109375 -4.796875 0.578125 -5.921875 C 1.054688 -7.046875 1.734375 -8.109375 2.609375 -9.109375 C 3.503906 -10.171875 4.503906 -11.066406 5.609375 -11.796875 C 6.710938 -12.523438 7.78125 -12.976562 8.8125 -13.15625 C 9.851562 -13.34375 10.679688 -13.171875 11.296875 -12.640625 C 11.710938 -12.273438 11.882812 -11.742188 11.8125 -11.046875 C 11.75 -10.347656 11.472656 -9.597656 10.984375 -8.796875 C 10.492188 -8.003906 9.828125 -7.25 8.984375 -6.53125 C 8.148438 -5.8125 7.144531 -5.269531 5.96875 -4.90625 C 5.4375 -4.738281 5.007812 -4.757812 4.6875 -4.96875 C 4.363281 -5.1875 4.164062 -5.476562 4.09375 -5.84375 C 4.019531 -6.207031 4.082031 -6.535156 4.28125 -6.828125 C 4.476562 -7.117188 4.828125 -7.265625 5.328125 -7.265625 C 6.671875 -7.265625 7.753906 -7.46875 8.578125 -7.875 C 9.410156 -8.28125 10.03125 -8.785156 10.4375 -9.390625 C 10.84375 -9.992188 11.046875 -10.570312 11.046875 -11.125 C 11.046875 -11.6875 10.890625 -12.109375 10.578125 -12.390625 C 10.210938 -12.753906 9.738281 -12.835938 9.15625 -12.640625 C 8.570312 -12.441406 7.941406 -12.066406 7.265625 -11.515625 C 6.597656 -10.972656 5.953125 -10.34375 5.328125 -9.625 C 4.742188 -8.945312 4.25 -8.207031 3.84375 -7.40625 C 3.4375 -6.613281 3.203125 -5.835938 3.140625 -5.078125 C 3.085938 -4.328125 3.273438 -3.644531 3.703125 -3.03125 C 4.285156 -2.238281 5.070312 -1.882812 6.0625 -1.96875 C 7.0625 -2.050781 8.191406 -2.5 9.453125 -3.3125 C 10.710938 -4.125 12.023438 -5.21875 13.390625 -6.59375 L 13.65625 -6.34375 C 12.945312 -5.414062 12.085938 -4.472656 11.078125 -3.515625 C 10.078125 -2.566406 9.007812 -1.75 7.875 -1.0625 C 6.738281 -0.382812 5.625 0.0507812 4.53125 0.25 C 3.4375 0.445312 2.472656 0.265625 1.640625 -0.296875 Z M 1.640625 -0.296875 "/></g></g></g><g fill="#000000" fill-opacity="1"><g transform="translate(213.649123, 319.044409)"><g><path d="M 2.3125 -0.625 C 1.632812 -1.300781 1.421875 -2.085938 1.671875 -2.984375 C 1.929688 -3.878906 2.742188 -4.925781 4.109375 -6.125 C 4.984375 -6.882812 5.835938 -7.640625 6.671875 -8.390625 C 7.515625 -9.148438 8.160156 -9.921875 8.609375 -10.703125 C 8.890625 -11.179688 8.890625 -11.601562 8.609375 -11.96875 C 8.328125 -12.332031 7.96875 -12.582031 7.53125 -12.71875 C 7.101562 -12.863281 6.765625 -12.8125 6.515625 -12.5625 C 6.117188 -12.195312 5.570312 -11.65625 4.875 -10.9375 C 4.175781 -10.226562 3.421875 -9.445312 2.609375 -8.59375 C 1.796875 -7.738281 1.007812 -6.890625 0.25 -6.046875 L 0 -6.34375 L 5.546875 -12.6875 C 5.796875 -12.988281 5.882812 -13.335938 5.8125 -13.734375 C 5.75 -14.128906 5.644531 -14.5625 5.5 -15.03125 C 5.363281 -15.507812 5.296875 -16.015625 5.296875 -16.546875 C 5.296875 -16.992188 5.429688 -17.347656 5.703125 -17.609375 C 5.984375 -17.878906 6.320312 -18.035156 6.71875 -18.078125 C 7.113281 -18.117188 7.472656 -18.023438 7.796875 -17.796875 C 8.117188 -17.578125 8.320312 -17.21875 8.40625 -16.71875 C 8.457031 -16.300781 8.382812 -15.941406 8.1875 -15.640625 C 7.988281 -15.347656 7.863281 -14.894531 7.8125 -14.28125 C 7.8125 -14.03125 7.9375 -13.789062 8.1875 -13.5625 C 8.4375 -13.34375 8.726562 -13.101562 9.0625 -12.84375 C 9.40625 -12.59375 9.703125 -12.320312 9.953125 -12.03125 C 10.203125 -11.738281 10.316406 -11.382812 10.296875 -10.96875 C 10.265625 -10.257812 10.023438 -9.566406 9.578125 -8.890625 C 9.128906 -8.222656 8.601562 -7.585938 8 -6.984375 C 7.394531 -6.390625 6.816406 -5.835938 6.265625 -5.328125 C 5.722656 -4.828125 5.328125 -4.363281 5.078125 -3.9375 C 4.828125 -3.519531 4.828125 -3.160156 5.078125 -2.859375 C 5.671875 -2.179688 6.671875 -2.210938 8.078125 -2.953125 C 9.492188 -3.703125 11.351562 -5.304688 13.65625 -7.765625 L 13.9375 -7.640625 C 12.507812 -5.734375 11.039062 -4.113281 9.53125 -2.78125 C 8.019531 -1.457031 6.625 -0.578125 5.34375 -0.140625 C 4.070312 0.285156 3.0625 0.125 2.3125 -0.625 Z M 2.3125 -0.625 "/></g></g></g><g fill="#000000" fill-opacity="1"><g transform="translate(224.65312, 319.044409)"><g><path d="M 7.4375 -0.34375 C 7.007812 -0.84375 6.898438 -1.445312 7.109375 -2.15625 C 7.328125 -2.875 7.671875 -3.625 8.140625 -4.40625 C 7.023438 -3.226562 5.898438 -2.226562 4.765625 -1.40625 C 3.628906 -0.582031 2.609375 -0.0625 1.703125 0.15625 C 0.796875 0.382812 0.0859375 0.21875 -0.421875 -0.34375 C -0.835938 -0.84375 -0.945312 -1.445312 -0.75 -2.15625 C -0.5625 -2.875 -0.203125 -3.644531 0.328125 -4.46875 C 0.867188 -5.300781 1.40625 -6.125 1.9375 -6.9375 C 2.519531 -7.851562 3.09375 -8.773438 3.65625 -9.703125 C 4.21875 -10.628906 4.832031 -11.550781 5.5 -12.46875 C 5.75 -12.8125 6.0625 -13.015625 6.4375 -13.078125 C 6.820312 -13.148438 7.175781 -13.101562 7.5 -12.9375 C 7.820312 -12.769531 8.023438 -12.503906 8.109375 -12.140625 C 8.191406 -11.773438 8.050781 -11.34375 7.6875 -10.84375 C 7.4375 -10.5 7.03125 -10.0625 6.46875 -9.53125 C 5.90625 -9 5.296875 -8.425781 4.640625 -7.8125 C 3.984375 -7.195312 3.390625 -6.582031 2.859375 -5.96875 C 2.328125 -5.351562 1.960938 -4.769531 1.765625 -4.21875 C 1.566406 -3.675781 1.664062 -3.207031 2.0625 -2.8125 C 2.675781 -2.195312 3.613281 -2.191406 4.875 -2.796875 C 6.132812 -3.398438 7.703125 -4.679688 9.578125 -6.640625 L 9.78125 -6.9375 C 10.375 -7.851562 10.945312 -8.773438 11.5 -9.703125 C 12.0625 -10.628906 12.679688 -11.550781 13.359375 -12.46875 C 13.609375 -12.8125 13.921875 -13.015625 14.296875 -13.078125 C 14.679688 -13.148438 15.03125 -13.101562 15.34375 -12.9375 C 15.664062 -12.769531 15.867188 -12.503906 15.953125 -12.140625 C 16.046875 -11.773438 15.910156 -11.34375 15.546875 -10.84375 C 15.285156 -10.5 14.875 -10.0625 14.3125 -9.53125 C 13.757812 -9 13.15625 -8.425781 12.5 -7.8125 C 11.84375 -7.195312 11.242188 -6.582031 10.703125 -5.96875 C 10.171875 -5.351562 9.804688 -4.769531 9.609375 -4.21875 C 9.421875 -3.675781 9.519531 -3.207031 9.90625 -2.8125 C 10.550781 -2.195312 11.539062 -2.222656 12.875 -2.890625 C 14.207031 -3.566406 15.878906 -4.96875 17.890625 -7.09375 L 18.1875 -6.96875 C 17.238281 -5.738281 16.226562 -4.601562 15.15625 -3.5625 C 14.09375 -2.53125 13.054688 -1.6875 12.046875 -1.03125 C 11.046875 -0.375 10.140625 0.03125 9.328125 0.1875 C 8.515625 0.34375 7.882812 0.164062 7.4375 -0.34375 Z M 7.4375 -0.34375 "/></g></g></g><g fill="#000000" fill-opacity="1"><g transform="translate(241.159115, 319.044409)"><g><path d="M -0.5 -0.921875 C -1.113281 -1.484375 -1.488281 -2.203125 -1.625 -3.078125 C -1.769531 -3.960938 -1.535156 -4.976562 -0.921875 -6.125 C -0.671875 -6.601562 -0.335938 -6.898438 0.078125 -7.015625 C 0.503906 -7.128906 0.867188 -7.101562 1.171875 -6.9375 C 2.015625 -7.914062 2.84375 -8.984375 3.65625 -10.140625 C 4.46875 -11.304688 5.335938 -12.519531 6.265625 -13.78125 C 6.347656 -13.945312 6.457031 -14.097656 6.59375 -14.234375 C 7.039062 -14.679688 7.519531 -14.910156 8.03125 -14.921875 C 8.550781 -14.941406 9.039062 -14.828125 9.5 -14.578125 C 9.96875 -14.328125 10.316406 -14.019531 10.546875 -13.65625 C 10.828125 -13.226562 10.847656 -12.796875 10.609375 -12.359375 C 10.367188 -11.929688 10.015625 -11.660156 9.546875 -11.546875 C 9.085938 -11.429688 8.664062 -11.613281 8.28125 -12.09375 C 8.164062 -12.238281 8.03125 -12.488281 7.875 -12.84375 C 7.71875 -13.207031 7.539062 -13.320312 7.34375 -13.1875 C 6.84375 -12.820312 6.582031 -12.222656 6.5625 -11.390625 C 6.550781 -10.566406 6.644531 -9.644531 6.84375 -8.625 C 7.039062 -7.601562 7.222656 -6.582031 7.390625 -5.5625 C 7.554688 -4.539062 7.554688 -3.648438 7.390625 -2.890625 C 8.203125 -3.117188 9.046875 -3.578125 9.921875 -4.265625 C 10.804688 -4.953125 11.835938 -5.9375 13.015625 -7.21875 L 13.3125 -7.015625 C 11.9375 -5.304688 10.582031 -3.941406 9.25 -2.921875 C 7.925781 -1.898438 6.71875 -1.132812 5.625 -0.625 C 4.976562 -0.207031 4.269531 0.0390625 3.5 0.125 C 2.738281 0.207031 2 0.148438 1.28125 -0.046875 C 0.5625 -0.242188 -0.03125 -0.535156 -0.5 -0.921875 Z M 0 -1.46875 C 0.332031 -1.101562 0.769531 -0.96875 1.3125 -1.0625 C 1.863281 -1.164062 2.445312 -1.460938 3.0625 -1.953125 C 3.675781 -2.441406 4.234375 -3.09375 4.734375 -3.90625 C 5.242188 -4.71875 5.613281 -5.640625 5.84375 -6.671875 C 5.976562 -7.265625 6.015625 -7.910156 5.953125 -8.609375 C 5.898438 -9.304688 5.851562 -10.007812 5.8125 -10.71875 C 5.769531 -11.4375 5.789062 -12.09375 5.875 -12.6875 C 5.175781 -11.59375 4.476562 -10.566406 3.78125 -9.609375 C 3.082031 -8.660156 2.328125 -7.679688 1.515625 -6.671875 C 1.847656 -6.253906 1.816406 -5.710938 1.421875 -5.046875 C 1.234375 -4.679688 0.957031 -4.285156 0.59375 -3.859375 C 0.226562 -3.441406 -0.0351562 -3.03125 -0.203125 -2.625 C -0.378906 -2.21875 -0.3125 -1.832031 0 -1.46875 Z M 0 -1.46875 "/></g></g></g></svg>